<mxfile host="app.diagrams.net" modified="2020-10-05T08:33:10.816Z" agent="5.0 (Windows NT 10.0; Win64; x64) AppleWebKit/537.36 (KHTML, like Gecko) Chrome/85.0.4183.121 Safari/537.36" etag="8s-0iL_yYS16wZA7w8V6" version="13.7.7" type="github">
  <diagram id="u_9rEFnVpWAHYIVJq_xr" name="Page-1">
    <mxGraphModel dx="1038" dy="579" grid="1" gridSize="10" guides="1" tooltips="1" connect="1" arrows="1" fold="1" page="1" pageScale="1" pageWidth="850" pageHeight="1100" math="0" shadow="0">
      <root>
        <mxCell id="0" />
        <mxCell id="1" parent="0" />
        <mxCell id="G1MenXZ-FoQM84yzvY5J-1" value="" style="ellipse;whiteSpace=wrap;html=1;aspect=fixed;fontSize=14;align=left;" vertex="1" parent="1">
          <mxGeometry x="208" y="158" width="20" height="20" as="geometry" />
        </mxCell>
        <mxCell id="G1MenXZ-FoQM84yzvY5J-2" value="velanalyze" style="text;html=1;strokeColor=none;fillColor=none;align=center;verticalAlign=middle;whiteSpace=wrap;rounded=0;fontSize=14;" vertex="1" parent="1">
          <mxGeometry x="198" y="208" width="40" height="20" as="geometry" />
        </mxCell>
        <mxCell id="G1MenXZ-FoQM84yzvY5J-3" value="" style="endArrow=classic;html=1;fontSize=14;exitX=1;exitY=0.5;exitDx=0;exitDy=0;" edge="1" parent="1" source="G1MenXZ-FoQM84yzvY5J-1" target="G1MenXZ-FoQM84yzvY5J-4">
          <mxGeometry width="50" height="50" relative="1" as="geometry">
            <mxPoint x="248" y="178" as="sourcePoint" />
            <mxPoint x="318" y="168" as="targetPoint" />
          </mxGeometry>
        </mxCell>
        <mxCell id="G1MenXZ-FoQM84yzvY5J-4" value="" style="ellipse;whiteSpace=wrap;html=1;aspect=fixed;fontSize=14;align=left;labelBackgroundColor=none;fillColor=#CCCCCC;" vertex="1" parent="1">
          <mxGeometry x="318" y="158" width="20" height="20" as="geometry" />
        </mxCell>
        <mxCell id="G1MenXZ-FoQM84yzvY5J-5" value="rtlc" style="text;html=1;strokeColor=none;fillColor=none;align=center;verticalAlign=middle;whiteSpace=wrap;rounded=0;fontSize=14;" vertex="1" parent="1">
          <mxGeometry x="308" y="208" width="40" height="20" as="geometry" />
        </mxCell>
        <mxCell id="G1MenXZ-FoQM84yzvY5J-6" value="" style="endArrow=classic;html=1;fontSize=14;exitX=1;exitY=0.5;exitDx=0;exitDy=0;" edge="1" parent="1">
          <mxGeometry width="50" height="50" relative="1" as="geometry">
            <mxPoint x="337.9999999999998" y="167.5" as="sourcePoint" />
            <mxPoint x="427.9999999999998" y="167.5" as="targetPoint" />
          </mxGeometry>
        </mxCell>
        <mxCell id="G1MenXZ-FoQM84yzvY5J-7" value="" style="ellipse;whiteSpace=wrap;html=1;aspect=fixed;fontSize=14;align=left;" vertex="1" parent="1">
          <mxGeometry x="428" y="158" width="20" height="20" as="geometry" />
        </mxCell>
        <mxCell id="G1MenXZ-FoQM84yzvY5J-8" value="" style="endArrow=classic;html=1;fontSize=14;exitX=1;exitY=0.5;exitDx=0;exitDy=0;" edge="1" parent="1">
          <mxGeometry width="50" height="50" relative="1" as="geometry">
            <mxPoint x="447.9999999999998" y="167.5" as="sourcePoint" />
            <mxPoint x="537.9999999999998" y="167.5" as="targetPoint" />
          </mxGeometry>
        </mxCell>
        <mxCell id="G1MenXZ-FoQM84yzvY5J-9" value="" style="ellipse;whiteSpace=wrap;html=1;aspect=fixed;fontSize=14;align=left;fillColor=#CCCCCC;" vertex="1" parent="1">
          <mxGeometry x="538" y="158" width="20" height="20" as="geometry" />
        </mxCell>
        <mxCell id="G1MenXZ-FoQM84yzvY5J-10" value="velsyn" style="text;html=1;strokeColor=none;fillColor=none;align=center;verticalAlign=middle;whiteSpace=wrap;rounded=0;fontSize=14;" vertex="1" parent="1">
          <mxGeometry x="418" y="208" width="40" height="20" as="geometry" />
        </mxCell>
        <mxCell id="G1MenXZ-FoQM84yzvY5J-11" value="velcc" style="text;html=1;strokeColor=none;fillColor=none;align=center;verticalAlign=middle;whiteSpace=wrap;rounded=0;fontSize=14;" vertex="1" parent="1">
          <mxGeometry x="528" y="208" width="40" height="20" as="geometry" />
        </mxCell>
        <mxCell id="G1MenXZ-FoQM84yzvY5J-12" value="" style="endArrow=classic;html=1;fontSize=14;exitX=1;exitY=0.5;exitDx=0;exitDy=0;" edge="1" parent="1">
          <mxGeometry width="50" height="50" relative="1" as="geometry">
            <mxPoint x="557.9999999999998" y="167.5" as="sourcePoint" />
            <mxPoint x="648" y="167.5" as="targetPoint" />
          </mxGeometry>
        </mxCell>
        <mxCell id="G1MenXZ-FoQM84yzvY5J-13" value="" style="ellipse;whiteSpace=wrap;html=1;aspect=fixed;fontSize=14;align=left;" vertex="1" parent="1">
          <mxGeometry x="648" y="158" width="20" height="20" as="geometry" />
        </mxCell>
        <mxCell id="G1MenXZ-FoQM84yzvY5J-14" value="velgs" style="text;html=1;strokeColor=none;fillColor=none;align=center;verticalAlign=middle;whiteSpace=wrap;rounded=0;fontSize=14;" vertex="1" parent="1">
          <mxGeometry x="638" y="208" width="40" height="20" as="geometry" />
        </mxCell>
        <mxCell id="G1MenXZ-FoQM84yzvY5J-15" value="" style="endArrow=classic;html=1;fontSize=14;exitX=1;exitY=0.5;exitDx=0;exitDy=0;" edge="1" parent="1">
          <mxGeometry width="50" height="50" relative="1" as="geometry">
            <mxPoint x="668" y="167.5" as="sourcePoint" />
            <mxPoint x="758" y="167.5" as="targetPoint" />
          </mxGeometry>
        </mxCell>
        <mxCell id="G1MenXZ-FoQM84yzvY5J-16" value="" style="ellipse;whiteSpace=wrap;html=1;aspect=fixed;fontSize=14;align=left;fillColor=#CCCCCC;" vertex="1" parent="1">
          <mxGeometry x="758" y="158" width="20" height="20" as="geometry" />
        </mxCell>
        <mxCell id="G1MenXZ-FoQM84yzvY5J-17" value="ssrmodelgen" style="text;html=1;strokeColor=none;fillColor=none;align=center;verticalAlign=middle;whiteSpace=wrap;rounded=0;fontSize=14;" vertex="1" parent="1">
          <mxGeometry x="748" y="208" width="40" height="20" as="geometry" />
        </mxCell>
        <mxCell id="G1MenXZ-FoQM84yzvY5J-18" value="" style="ellipse;whiteSpace=wrap;html=1;aspect=fixed;fontSize=14;align=left;labelBackgroundColor=none;fillColor=#CCCCCC;" vertex="1" parent="1">
          <mxGeometry x="160" y="360" width="20" height="20" as="geometry" />
        </mxCell>
        <mxCell id="G1MenXZ-FoQM84yzvY5J-19" value="" style="ellipse;whiteSpace=wrap;html=1;aspect=fixed;fontSize=14;align=left;" vertex="1" parent="1">
          <mxGeometry x="708" y="50" width="20" height="20" as="geometry" />
        </mxCell>
        <mxCell id="G1MenXZ-FoQM84yzvY5J-20" value="" style="ellipse;whiteSpace=wrap;html=1;aspect=fixed;fontSize=14;align=left;labelBackgroundColor=none;fillColor=#CCCCCC;" vertex="1" parent="1">
          <mxGeometry x="708" y="80" width="20" height="20" as="geometry" />
        </mxCell>
        <mxCell id="G1MenXZ-FoQM84yzvY5J-21" value="single job" style="text;html=1;strokeColor=none;fillColor=none;align=left;verticalAlign=middle;whiteSpace=wrap;rounded=0;fontSize=14;" vertex="1" parent="1">
          <mxGeometry x="738" y="50" width="80" height="20" as="geometry" />
        </mxCell>
        <mxCell id="G1MenXZ-FoQM84yzvY5J-22" value="distributed job" style="text;html=1;strokeColor=none;fillColor=none;align=left;verticalAlign=middle;whiteSpace=wrap;rounded=0;fontSize=14;" vertex="1" parent="1">
          <mxGeometry x="738" y="80" width="90" height="20" as="geometry" />
        </mxCell>
        <mxCell id="G1MenXZ-FoQM84yzvY5J-23" value="Distributed jobs (LSF)" style="text;html=1;strokeColor=none;fillColor=none;align=left;verticalAlign=middle;whiteSpace=wrap;rounded=0;fontSize=14;fontStyle=1" vertex="1" parent="1">
          <mxGeometry x="50" y="280" width="150" height="20" as="geometry" />
        </mxCell>
        <mxCell id="G1MenXZ-FoQM84yzvY5J-24" value="pending" style="rounded=0;whiteSpace=wrap;html=1;labelBackgroundColor=none;fontSize=14;align=center;fillColor=#f8cecc;strokeColor=#b85450;" vertex="1" parent="1">
          <mxGeometry x="230" y="320" width="70" height="20" as="geometry" />
        </mxCell>
        <mxCell id="G1MenXZ-FoQM84yzvY5J-25" value="execution" style="rounded=0;whiteSpace=wrap;html=1;labelBackgroundColor=none;fontSize=14;align=center;fillColor=#d5e8d4;strokeColor=#82b366;" vertex="1" parent="1">
          <mxGeometry x="300" y="320" width="110" height="20" as="geometry" />
        </mxCell>
        <mxCell id="G1MenXZ-FoQM84yzvY5J-26" value="" style="ellipse;whiteSpace=wrap;html=1;aspect=fixed;fontSize=14;align=left;" vertex="1" parent="1">
          <mxGeometry x="480" y="360" width="20" height="20" as="geometry" />
        </mxCell>
        <mxCell id="G1MenXZ-FoQM84yzvY5J-27" value="" style="endArrow=classic;html=1;fontSize=14;entryX=0;entryY=0.5;entryDx=0;entryDy=0;" edge="1" parent="1" target="G1MenXZ-FoQM84yzvY5J-24">
          <mxGeometry width="50" height="50" relative="1" as="geometry">
            <mxPoint x="180" y="370" as="sourcePoint" />
            <mxPoint x="200" y="330" as="targetPoint" />
          </mxGeometry>
        </mxCell>
        <mxCell id="G1MenXZ-FoQM84yzvY5J-28" value="" style="endArrow=classic;html=1;fontSize=14;entryX=0;entryY=0.5;entryDx=0;entryDy=0;" edge="1" parent="1" target="G1MenXZ-FoQM84yzvY5J-26">
          <mxGeometry width="50" height="50" relative="1" as="geometry">
            <mxPoint x="410" y="330" as="sourcePoint" />
            <mxPoint x="460.0000000000001" y="290" as="targetPoint" />
          </mxGeometry>
        </mxCell>
        <mxCell id="G1MenXZ-FoQM84yzvY5J-29" value="pending" style="rounded=0;whiteSpace=wrap;html=1;labelBackgroundColor=none;fontSize=14;align=center;fillColor=#f8cecc;strokeColor=#b85450;" vertex="1" parent="1">
          <mxGeometry x="230" y="360" width="70" height="20" as="geometry" />
        </mxCell>
        <mxCell id="G1MenXZ-FoQM84yzvY5J-30" value="execution" style="rounded=0;whiteSpace=wrap;html=1;labelBackgroundColor=none;fontSize=14;align=center;fillColor=#d5e8d4;strokeColor=#82b366;" vertex="1" parent="1">
          <mxGeometry x="300" y="360" width="110" height="20" as="geometry" />
        </mxCell>
        <mxCell id="G1MenXZ-FoQM84yzvY5J-31" value="job 0" style="text;html=1;strokeColor=none;fillColor=none;align=center;verticalAlign=middle;whiteSpace=wrap;rounded=0;fontSize=14;" vertex="1" parent="1">
          <mxGeometry x="228" y="300" width="40" height="20" as="geometry" />
        </mxCell>
        <mxCell id="G1MenXZ-FoQM84yzvY5J-32" value="job 1" style="text;html=1;strokeColor=none;fillColor=none;align=center;verticalAlign=middle;whiteSpace=wrap;rounded=0;fontSize=14;" vertex="1" parent="1">
          <mxGeometry x="228" y="340" width="40" height="20" as="geometry" />
        </mxCell>
        <mxCell id="G1MenXZ-FoQM84yzvY5J-33" value="pending" style="rounded=0;whiteSpace=wrap;html=1;labelBackgroundColor=none;fontSize=14;align=center;fillColor=#f8cecc;strokeColor=#b85450;" vertex="1" parent="1">
          <mxGeometry x="230" y="450" width="70" height="20" as="geometry" />
        </mxCell>
        <mxCell id="G1MenXZ-FoQM84yzvY5J-34" value="execution" style="rounded=0;whiteSpace=wrap;html=1;labelBackgroundColor=none;fontSize=14;align=center;fillColor=#d5e8d4;strokeColor=#82b366;" vertex="1" parent="1">
          <mxGeometry x="300" y="450" width="110" height="20" as="geometry" />
        </mxCell>
        <mxCell id="G1MenXZ-FoQM84yzvY5J-35" value="job N" style="text;html=1;strokeColor=none;fillColor=none;align=center;verticalAlign=middle;whiteSpace=wrap;rounded=0;fontSize=14;" vertex="1" parent="1">
          <mxGeometry x="228" y="430" width="40" height="20" as="geometry" />
        </mxCell>
        <mxCell id="G1MenXZ-FoQM84yzvY5J-36" value="" style="endArrow=classic;html=1;fontSize=14;entryX=0;entryY=0.5;entryDx=0;entryDy=0;exitX=1;exitY=0.5;exitDx=0;exitDy=0;" edge="1" parent="1" source="G1MenXZ-FoQM84yzvY5J-18" target="G1MenXZ-FoQM84yzvY5J-29">
          <mxGeometry width="50" height="50" relative="1" as="geometry">
            <mxPoint x="190.0000000000001" y="380" as="sourcePoint" />
            <mxPoint x="240.0000000000001" y="340" as="targetPoint" />
          </mxGeometry>
        </mxCell>
        <mxCell id="G1MenXZ-FoQM84yzvY5J-37" value="" style="endArrow=classic;html=1;fontSize=14;entryX=0;entryY=0.5;entryDx=0;entryDy=0;exitX=1;exitY=0.5;exitDx=0;exitDy=0;" edge="1" parent="1" source="G1MenXZ-FoQM84yzvY5J-18" target="G1MenXZ-FoQM84yzvY5J-33">
          <mxGeometry width="50" height="50" relative="1" as="geometry">
            <mxPoint x="190.0000000000001" y="380" as="sourcePoint" />
            <mxPoint x="240.0000000000001" y="380" as="targetPoint" />
          </mxGeometry>
        </mxCell>
        <mxCell id="G1MenXZ-FoQM84yzvY5J-38" value="" style="ellipse;whiteSpace=wrap;html=1;aspect=fixed;fontSize=14;align=left;fillColor=#000000;" vertex="1" parent="1">
          <mxGeometry x="310" y="390" width="10" height="10" as="geometry" />
        </mxCell>
        <mxCell id="G1MenXZ-FoQM84yzvY5J-39" value="" style="ellipse;whiteSpace=wrap;html=1;aspect=fixed;fontSize=14;align=left;fillColor=#000000;" vertex="1" parent="1">
          <mxGeometry x="310" y="404" width="10" height="10" as="geometry" />
        </mxCell>
        <mxCell id="G1MenXZ-FoQM84yzvY5J-40" value="" style="ellipse;whiteSpace=wrap;html=1;aspect=fixed;fontSize=14;align=left;fillColor=#000000;" vertex="1" parent="1">
          <mxGeometry x="310" y="420" width="10" height="10" as="geometry" />
        </mxCell>
        <mxCell id="G1MenXZ-FoQM84yzvY5J-41" value="" style="endArrow=classic;html=1;fontSize=14;exitX=1;exitY=0.5;exitDx=0;exitDy=0;" edge="1" parent="1" source="G1MenXZ-FoQM84yzvY5J-30">
          <mxGeometry width="50" height="50" relative="1" as="geometry">
            <mxPoint x="420" y="340" as="sourcePoint" />
            <mxPoint x="480" y="370" as="targetPoint" />
          </mxGeometry>
        </mxCell>
        <mxCell id="G1MenXZ-FoQM84yzvY5J-42" value="" style="endArrow=classic;html=1;fontSize=14;exitX=1;exitY=0.5;exitDx=0;exitDy=0;" edge="1" parent="1" source="G1MenXZ-FoQM84yzvY5J-34">
          <mxGeometry width="50" height="50" relative="1" as="geometry">
            <mxPoint x="420" y="380" as="sourcePoint" />
            <mxPoint x="480" y="370" as="targetPoint" />
          </mxGeometry>
        </mxCell>
        <mxCell id="G1MenXZ-FoQM84yzvY5J-43" value="submit" style="text;html=1;strokeColor=none;fillColor=none;align=center;verticalAlign=middle;whiteSpace=wrap;rounded=0;fontSize=10;" vertex="1" parent="1">
          <mxGeometry x="180" y="325" width="40" height="20" as="geometry" />
        </mxCell>
        <mxCell id="G1MenXZ-FoQM84yzvY5J-44" value="complete" style="text;html=1;strokeColor=none;fillColor=none;align=center;verticalAlign=middle;whiteSpace=wrap;rounded=0;fontSize=10;" vertex="1" parent="1">
          <mxGeometry x="440" y="325" width="40" height="20" as="geometry" />
        </mxCell>
        <mxCell id="G1MenXZ-FoQM84yzvY5J-45" value="running" style="text;html=1;strokeColor=none;fillColor=none;align=center;verticalAlign=middle;whiteSpace=wrap;rounded=0;fontSize=10;" vertex="1" parent="1">
          <mxGeometry x="330" y="290" width="40" height="20" as="geometry" />
        </mxCell>
        <mxCell id="G1MenXZ-FoQM84yzvY5J-46" value="" style="endArrow=none;html=1;fontSize=10;" edge="1" parent="1">
          <mxGeometry width="50" height="50" relative="1" as="geometry">
            <mxPoint x="660" y="470" as="sourcePoint" />
            <mxPoint x="660" y="320" as="targetPoint" />
          </mxGeometry>
        </mxCell>
        <mxCell id="G1MenXZ-FoQM84yzvY5J-47" value="" style="endArrow=none;html=1;fontSize=10;" edge="1" parent="1">
          <mxGeometry width="50" height="50" relative="1" as="geometry">
            <mxPoint x="980" y="470" as="sourcePoint" />
            <mxPoint x="660" y="470" as="targetPoint" />
          </mxGeometry>
        </mxCell>
        <mxCell id="G1MenXZ-FoQM84yzvY5J-48" value="pend" style="rounded=0;whiteSpace=wrap;html=1;labelBackgroundColor=none;fontSize=14;align=center;fillColor=#f8cecc;strokeColor=#b85450;" vertex="1" parent="1">
          <mxGeometry x="660" y="330" width="50" height="20" as="geometry" />
        </mxCell>
        <mxCell id="G1MenXZ-FoQM84yzvY5J-49" value="exec" style="rounded=0;whiteSpace=wrap;html=1;labelBackgroundColor=none;fontSize=14;align=center;fillColor=#d5e8d4;strokeColor=#82b366;" vertex="1" parent="1">
          <mxGeometry x="710" y="330" width="100" height="20" as="geometry" />
        </mxCell>
        <mxCell id="G1MenXZ-FoQM84yzvY5J-50" value="host 0" style="text;html=1;strokeColor=none;fillColor=none;align=right;verticalAlign=middle;whiteSpace=wrap;rounded=0;fontSize=14;" vertex="1" parent="1">
          <mxGeometry x="580" y="330" width="60" height="20" as="geometry" />
        </mxCell>
        <mxCell id="G1MenXZ-FoQM84yzvY5J-51" value="host 1" style="text;html=1;strokeColor=none;fillColor=none;align=right;verticalAlign=middle;whiteSpace=wrap;rounded=0;fontSize=14;" vertex="1" parent="1">
          <mxGeometry x="580" y="360" width="60" height="20" as="geometry" />
        </mxCell>
        <mxCell id="G1MenXZ-FoQM84yzvY5J-52" value="pend" style="rounded=0;whiteSpace=wrap;html=1;labelBackgroundColor=none;fontSize=14;align=center;fillColor=#f8cecc;strokeColor=#b85450;" vertex="1" parent="1">
          <mxGeometry x="660" y="360" width="70" height="20" as="geometry" />
        </mxCell>
        <mxCell id="G1MenXZ-FoQM84yzvY5J-53" value="exec" style="rounded=0;whiteSpace=wrap;html=1;labelBackgroundColor=none;fontSize=14;align=center;fillColor=#d5e8d4;strokeColor=#82b366;" vertex="1" parent="1">
          <mxGeometry x="728" y="360" width="100" height="20" as="geometry" />
        </mxCell>
        <mxCell id="G1MenXZ-FoQM84yzvY5J-54" value="host 2" style="text;html=1;strokeColor=none;fillColor=none;align=right;verticalAlign=middle;whiteSpace=wrap;rounded=0;fontSize=14;" vertex="1" parent="1">
          <mxGeometry x="580" y="390" width="60" height="20" as="geometry" />
        </mxCell>
        <mxCell id="G1MenXZ-FoQM84yzvY5J-55" value="pend" style="rounded=0;whiteSpace=wrap;html=1;labelBackgroundColor=none;fontSize=14;align=center;fillColor=#f8cecc;strokeColor=#b85450;" vertex="1" parent="1">
          <mxGeometry x="660" y="390" width="50" height="20" as="geometry" />
        </mxCell>
        <mxCell id="G1MenXZ-FoQM84yzvY5J-56" value="exec" style="rounded=0;whiteSpace=wrap;html=1;labelBackgroundColor=none;fontSize=14;align=center;fillColor=#d5e8d4;strokeColor=#82b366;" vertex="1" parent="1">
          <mxGeometry x="710" y="390" width="160" height="20" as="geometry" />
        </mxCell>
        <mxCell id="G1MenXZ-FoQM84yzvY5J-57" value="host 3" style="text;html=1;strokeColor=none;fillColor=none;align=right;verticalAlign=middle;whiteSpace=wrap;rounded=0;fontSize=14;" vertex="1" parent="1">
          <mxGeometry x="580" y="420" width="60" height="20" as="geometry" />
        </mxCell>
        <mxCell id="G1MenXZ-FoQM84yzvY5J-58" value="pend" style="rounded=0;whiteSpace=wrap;html=1;labelBackgroundColor=none;fontSize=14;align=center;fillColor=#f8cecc;strokeColor=#b85450;" vertex="1" parent="1">
          <mxGeometry x="660" y="420" width="50" height="20" as="geometry" />
        </mxCell>
        <mxCell id="G1MenXZ-FoQM84yzvY5J-59" value="exec" style="rounded=0;whiteSpace=wrap;html=1;labelBackgroundColor=none;fontSize=14;align=center;fillColor=#d5e8d4;strokeColor=#82b366;" vertex="1" parent="1">
          <mxGeometry x="710" y="420" width="90" height="20" as="geometry" />
        </mxCell>
        <mxCell id="G1MenXZ-FoQM84yzvY5J-60" value="exec" style="rounded=0;whiteSpace=wrap;html=1;labelBackgroundColor=none;fontSize=14;align=center;fillColor=#d5e8d4;strokeColor=#82b366;" vertex="1" parent="1">
          <mxGeometry x="800" y="420" width="90" height="20" as="geometry" />
        </mxCell>
        <mxCell id="G1MenXZ-FoQM84yzvY5J-61" value="time" style="text;html=1;strokeColor=none;fillColor=none;align=right;verticalAlign=middle;whiteSpace=wrap;rounded=0;fontSize=14;" vertex="1" parent="1">
          <mxGeometry x="940" y="470" width="60" height="20" as="geometry" />
        </mxCell>
        <mxCell id="G1MenXZ-FoQM84yzvY5J-62" value="assigned hosts" style="text;html=1;strokeColor=none;fillColor=none;align=right;verticalAlign=middle;whiteSpace=wrap;rounded=0;fontSize=14;" vertex="1" parent="1">
          <mxGeometry x="580" y="290" width="100" height="20" as="geometry" />
        </mxCell>
        <mxCell id="G1MenXZ-FoQM84yzvY5J-63" value="job 0" style="text;html=1;strokeColor=none;fillColor=none;align=right;verticalAlign=middle;whiteSpace=wrap;rounded=0;fontSize=14;" vertex="1" parent="1">
          <mxGeometry x="820" y="330" width="60" height="20" as="geometry" />
        </mxCell>
        <mxCell id="G1MenXZ-FoQM84yzvY5J-64" value="job 1" style="text;html=1;strokeColor=none;fillColor=none;align=right;verticalAlign=middle;whiteSpace=wrap;rounded=0;fontSize=14;" vertex="1" parent="1">
          <mxGeometry x="840" y="360" width="60" height="20" as="geometry" />
        </mxCell>
        <mxCell id="G1MenXZ-FoQM84yzvY5J-65" value="job 2" style="text;html=1;strokeColor=none;fillColor=none;align=right;verticalAlign=middle;whiteSpace=wrap;rounded=0;fontSize=14;" vertex="1" parent="1">
          <mxGeometry x="865" y="390" width="60" height="20" as="geometry" />
        </mxCell>
        <mxCell id="G1MenXZ-FoQM84yzvY5J-66" value="job 3,4" style="text;html=1;strokeColor=none;fillColor=none;align=right;verticalAlign=middle;whiteSpace=wrap;rounded=0;fontSize=14;" vertex="1" parent="1">
          <mxGeometry x="890" y="420" width="60" height="20" as="geometry" />
        </mxCell>
        <mxCell id="G1MenXZ-FoQM84yzvY5J-67" value="" style="endArrow=none;dashed=1;html=1;fontSize=10;" edge="1" parent="1">
          <mxGeometry width="50" height="50" relative="1" as="geometry">
            <mxPoint x="660" y="520" as="sourcePoint" />
            <mxPoint x="660" y="470" as="targetPoint" />
          </mxGeometry>
        </mxCell>
        <mxCell id="G1MenXZ-FoQM84yzvY5J-68" value="" style="endArrow=none;dashed=1;html=1;fontSize=10;" edge="1" parent="1">
          <mxGeometry width="50" height="50" relative="1" as="geometry">
            <mxPoint x="890" y="520" as="sourcePoint" />
            <mxPoint x="890" y="435" as="targetPoint" />
          </mxGeometry>
        </mxCell>
        <mxCell id="G1MenXZ-FoQM84yzvY5J-69" value="" style="endArrow=classic;startArrow=classic;html=1;fontSize=10;" edge="1" parent="1">
          <mxGeometry width="50" height="50" relative="1" as="geometry">
            <mxPoint x="660" y="500" as="sourcePoint" />
            <mxPoint x="890" y="500" as="targetPoint" />
          </mxGeometry>
        </mxCell>
        <mxCell id="G1MenXZ-FoQM84yzvY5J-70" value="max (T_EN + T_PN )" style="edgeLabel;html=1;align=center;verticalAlign=middle;resizable=0;points=[];fontSize=12;" vertex="1" connectable="0" parent="G1MenXZ-FoQM84yzvY5J-69">
          <mxGeometry x="0.2522" y="1" relative="1" as="geometry">
            <mxPoint x="-26" as="offset" />
          </mxGeometry>
        </mxCell>
      </root>
    </mxGraphModel>
  </diagram>
</mxfile>
